<svg height="512pt" viewBox="0 -24 512 511" width="512pt" xmlns="http://www.w3.org/2000/svg"><path d="m500.484375 284.308594c5.046875-16.265625 8.472656-33.042969 10.199219-50.066406.027344-.207032.046875-.414063.0625-.625.832031-8.390626 1.253906-16.839844 1.253906-25.316407 0-21.5625-17.539062-39.101562-39.101562-39.101562h-14.382813c.078125-4.929688-.507813-9.878907-1.796875-14.683594-2.40625-8.96875-7.128906-17.160156-13.59375-23.726563-.070312-9.214843-2.523438-18.347656-7.167969-26.390624-4.640625-8.042969-11.324219-14.730469-19.269531-19.402344-2.453125-8.886719-7.1875-17.070313-13.753906-23.636719-6.566406-6.5625-14.75-11.292969-23.632813-13.75-4.671875-7.945313-11.359375-14.632813-19.40625-19.273437-8.042969-4.640626-17.171875-7.09375-26.382812-7.164063-6.570313-6.46875-14.765625-11.191406-23.730469-13.59375-8.972656-2.402344-18.425781-2.40625-27.347656-.09375-8.015625-4.542969-17.148438-6.984375-26.433594-6.984375s-18.421875 2.441406-26.4375 6.988281c-8.925781-2.316406-18.378906-2.3125-27.347656.089844-8.96875 2.40625-17.15625 7.128906-23.726563 13.59375-9.214843.074219-18.347656 2.523437-26.390625 7.167969-8.039062 4.640625-14.730468 11.324218-19.398437 19.269531-8.886719 2.453125-17.070313 7.1875-23.640625 13.753906-6.5625 6.5625-11.292969 14.75-13.75 23.632813-7.941406 4.667968-14.625 11.359375-19.273438 19.402344-4.640625 8.042968-7.089844 17.171874-7.164062 26.386718-6.464844 6.566406-11.1875 14.757813-13.59375 23.726563-1.289063 4.808593-1.878906 9.757812-1.800782 14.6875h-14.375c-21.5625 0-39.101562 17.539062-39.101562 39.101562 0 8.484375.421875 16.941407 1.253906 25.339844.019532.195313.035156.386719.058594.578125 1.726562 17.035156 5.152344 33.816406 10.203125 50.089844.144531.570312.320313 1.128906.527344 1.671875 5.769531 18.144531 13.550781 35.644531 23.273437 52.136719 20.9375 35.515624 50.273438 65.585937 85.183594 87.410156v23.773437c0 8.285157 6.714844 15 15 15h241c8.285156 0 15-6.714843 15-15v-23.773437c34.910156-21.824219 64.246094-51.894532 85.183594-87.410156 9.722656-16.488282 17.507812-33.992188 23.273437-52.136719.207031-.542969.382813-1.101563.527344-1.671875zm-467.039063-36.910156h445.109376c-1.085938 6.136718-2.421876 12.207031-4.003907 18.199218h-437.101562c-1.582031-5.992187-2.917969-12.0625-4.003907-18.199218zm50.8125-85.121094c1.410157-5.269532 4.488282-9.746094 8.894532-12.945313 4.566406-3.316406 6.886718-8.914062 6.003906-14.488281-.855469-5.378906.136719-10.722656 2.863281-15.445312 2.726563-4.722657 6.859375-8.253907 11.945313-10.203126 5.269531-2.019531 8.957031-6.828124 9.546875-12.4375.570312-5.421874 2.90625-10.328124 6.761719-14.183593 3.859374-3.855469 8.761718-6.195313 14.1875-6.765625 5.609374-.589844 10.417968-4.277344 12.4375-9.546875 1.949218-5.085938 5.480468-9.214844 10.199218-11.941407 4.726563-2.726562 10.070313-3.714843 15.449219-2.863281 5.574219.882813 11.171875-1.4375 14.484375-6 3.203125-4.410156 7.683594-7.488281 12.949219-8.898437 5.265625-1.414063 10.683593-.984375 15.667969 1.230468 5.152343 2.296876 11.160156 1.507813 15.542968-2.046874 4.234375-3.429688 9.355469-5.242188 14.808594-5.242188s10.574219 1.8125 14.804688 5.242188c4.386718 3.554687 10.398437 4.34375 15.550781 2.046874 4.976562-2.21875 10.386719-2.644531 15.664062-1.230468 5.269531 1.410156 9.746094 4.488281 12.949219 8.898437 3.316406 4.566407 8.917969 6.886719 14.484375 6 5.382813-.851562 10.722656.136719 15.445313 2.863281 4.726562 2.726563 8.253906 6.855469 10.207031 11.945313 2.019531 5.265625 6.824219 8.957031 12.4375 9.546875 5.417969.566406 10.320312 2.90625 14.183593 6.765625 3.855469 3.855469 6.191407 8.757813 6.761719 14.175781.585938 5.609375 4.277344 10.417969 9.542969 12.441406 5.089844 1.949219 9.21875 5.480469 11.949219 10.203126 2.726562 4.726562 3.71875 10.066406 2.863281 15.441406-.890625 5.574218 1.429688 11.179687 6 14.496094 4.40625 3.199218 7.484375 7.675781 8.894531 12.949218.617188 2.292969.863281 4.613282.785157 6.914063h-345.050782c-.078125-2.304688.167969-4.625.785156-6.921875zm-45.15625 36.921875h433.796876c5.019531 0 9.101562 4.082031 9.101562 9.101562 0 3.042969-.066406 6.074219-.191406 9.101563h-451.617188c-.121094-3.027344-.191406-6.058594-.191406-9.101563 0-5.019531 4.082031-9.101562 9.101562-9.101562zm329.886719 204.867187c-4.632812 2.679688-7.488281 7.628906-7.488281 12.984375v17.25h-211v-17.25c0-5.355469-2.855469-10.304687-7.488281-12.984375-43.359375-25.082031-76.496094-63.589844-95.359375-108.46875h416.695312c-18.863281 44.878906-52 83.386719-95.359375 108.46875zm0 0"/></svg>