<svg id="Layer_1" enable-background="new 0 0 512 512" height="512" viewBox="0 0 512 512" width="512" xmlns="http://www.w3.org/2000/svg"><g><path d="m83.343 376.688-56.52 34.274c-15.059 9.132-24.731 25.018-25.926 42.585l-.046.679c-2.226 32.715 24.94 59.872 57.666 57.647 17.949-1.22 34.118-11.277 43.143-26.834l33.19-57.21z" fill="#ffdb0d"/><g><path d="m224.064 283.815c63.436 63.047 143.073 60.235 185.137 45.674 171.753-59.453 74.825-302.682 74.825-302.682l.278.276s-244.728-96.334-304.548 74.367c-14.65 41.806-19.128 119.317 44.308 182.365z" fill="#fff0ca"/><g fill="#fee9ad"><path d="m484.026 26.807s.028.069.078.199c.13.05.2.078.2.078z"/><path d="m484.104 27.006c-4.449-1.722-83.951-31.98-162.269-26.295 62.864 4.12 117.399 24.877 121.062 26.295-.051-.129-.078-.199-.078-.199l.278.276s-.07-.027-.2-.078c3.033 7.742 94.029 244.006-74.903 302.483-9.649 3.34-21.279 6.058-34.233 7.509 29.533 3.285 56.354-.902 75.44-7.509 168.933-58.476 77.937-294.741 74.903-302.482z"/></g><g fill="#fff0ca"><path d="m484.026 26.807s.028.069.078.199c.13.05.2.078.2.078z"/><path d="m237.589 272.287c-.047-.047-.092-.093-.138-.139-.047-.046-.093-.091-.14-.137z"/></g><g><g><g><g><g><path d="m375.338 158.343c-19.469 15.174-24.112 41.592-10.371 59.007s40.663 19.232 60.132 4.058c34.807-27.128 18.356-88.198 4.615-105.613 0 .001-34.907 27.375-54.376 42.548z" fill="#ff5492"/><path d="m430.207 227.883c-19.469 15.174-46.391 13.357-60.132-4.058s-9.097-43.833 10.371-59.007c34.807-27.128 90.559 3.311 104.3 20.726.001 0-35.07 27.166-54.539 42.339z" fill="#ff7db6"/></g></g><path d="m323.212 259.496c-2.46-3.486-7.281-4.317-10.768-1.857l-48.112 33.956c-3.486 2.46-4.318 7.281-1.857 10.768 1.505 2.133 3.893 3.272 6.319 3.272 1.54 0 3.095-.459 4.449-1.414l48.112-33.956c3.487-2.461 4.318-7.282 1.857-10.769z" fill="#54768a"/></g><g><g><g><path d="m352.278 135.424c-15.267 19.35-41.849 23.965-59.371 10.308s-19.35-40.414-4.083-59.763c27.295-34.593 88.742-18.244 106.264-4.587 0 0-27.543 34.693-42.81 54.042z" fill="#ff5492"/><path d="m282.309 80.892c-15.267 19.35-13.439 46.106 4.083 59.763s44.104 9.042 59.371-10.308c27.295-34.593-3.332-90.004-20.854-103.661 0 0-27.332 34.856-42.6 54.206z" fill="#ff7db6"/></g></g><path d="m253.401 185.039c-3.473-2.479-8.298-1.675-10.778 1.799l-36.125 50.598c-2.479 3.473-1.674 8.298 1.799 10.778 1.361.971 2.929 1.439 4.483 1.439 2.411 0 4.787-1.125 6.295-3.237l36.125-50.598c2.479-3.474 1.674-8.299-1.799-10.779z" fill="#54768a"/></g></g><g fill="#ff91c1"><path d="m340.071 170.519c8.686-50.029-31.059-112.353-54.651-130.739 0 0-40.375 51.524-62.937 80.119s-17.529 69.954 11.242 92.378c15.022 11.707 33.542 15.923 51.026 13.224-.022.144-.035.288-.057.432l55.42-55.42c-.014.001-.029.003-.043.006z"/><path d="m340.114 170.512-55.42 55.42c-2.579 17.25 1.68 35.474 13.362 50.281 22.562 28.595 64.176 33.597 92.947 11.174 28.771-22.424 80.613-62.552 80.613-62.552-18.495-23.441-81.171-62.927-131.502-54.323z"/></g><g><path d="m326.413 183.733c-3.012-3.025-7.903-3.036-10.927-.026l-83.425 83.027c-3.025 3.01-3.036 7.902-.026 10.927 1.51 1.517 3.493 2.276 5.476 2.276 1.971 0 3.943-.749 5.45-2.25l83.425-83.027c3.025-3.011 3.037-7.902.027-10.927z" fill="#54768a"/><g><path d="m435.589 75.458c-4.479-18.57-13.421-34.916-20.676-42.126 0 0-31.346 31.342-48.841 48.73-17.495 17.387-18.913 44.169-3.167 59.818.988.982 2.021 1.897 3.092 2.745.853 1.065 1.774 2.091 2.762 3.073 15.746 15.649 42.692 14.24 60.187-3.148s49.03-48.542 49.03-48.542c-7.256-7.212-23.702-16.099-42.387-20.55z" fill="#ff91c1"/><g><path d="m302.802 114.577c-25.854 25.695-25.854 67.355 0 93.051s67.771 25.695 93.624 0c46.221-45.938 4.391-139.383-21.462-165.078 0 0-46.309 46.332-72.162 72.027z" fill="#ff91c1"/><path d="m396.271 207.474c-25.854 25.695-67.771 25.695-93.624 0s-25.854-67.355 0-93.051c46.221-45.938 140.242-4.364 166.096 21.331 0 0-46.618 46.025-72.472 71.72z" fill="#ff7db6"/></g></g></g></g></g><path d="m237.451 272.148c.047.046.092.093.138.139l-.278-.276c.046.046.093.091.14.137-63.309-63.006-72.334-128.922-57.694-170.698 6.168-17.602 14.307-32.357 23.936-44.679-87.65 98.53-100.917 298.043-100.917 298.043l15.827 37.941 38.961 16.83s187.644-5.81 295.6-103.125c-12.196 9.239-26.723 17.062-43.963 23.029-42.033 14.55-108.357 5.581-171.75-57.341z" fill="#ffdb0d"/><path d="m140.403 436.969-66.225-65.82c-6.281-6.242-6.281-16.367 0-22.609 6.275-6.237 16.445-6.237 22.72 0l66.034 66.011c6.281 6.242 6.472 16.175.192 22.417-6.276 6.238-16.446 6.238-22.721.001z" fill="#54768a"/></g></svg>