<svg id="icons" enable-background="new 0 0 64 64" height="512" viewBox="0 0 64 64" width="512" xmlns="http://www.w3.org/2000/svg"><path d="m63.894 39.046-1-1.994c-.136-.271-.388-.466-.684-.529l-13.786-2.954-11.824-8.869c-.173-.13-.383-.2-.6-.2h-6.999v-1.003c.005 0 .009-.003.014-.003h6.984c.553 0 1-.447 1-1v-13.998c0-.553-.447-1-1-1h-20.003c-.553 0-1 .447-1 1v13.998c0 .553.447 1 1 1h6.479c.007 0 .013.004.02.004s.013-.004.02-.004h.483v1.005l-7.993-.001s-.001 0-.002 0c-.002 0-.003 0-.005 0h-6.998c-.334 0-.646.167-.832.445l-6 9.002c-.022.033-.033.072-.051.108-.018.033-.034.064-.047.1-.042.112-.07.227-.07.347v8.004c-.266 0-.521.105-.708.294-.188.187-.293.443-.292.709l.016 6c0 .088.029.166.051.247.012.046.01.097.028.141.021.05.062.088.091.134.177.279.475.476.83.476h.003 4.06c.488 3.387 3.401 6 6.922 6 3.519 0 6.432-2.613 6.92-6h26.158c.488 3.387 3.401 6 6.92 6 3.521 0 6.434-2.613 6.922-6h2.074.003.001c.004 0 .008-.002.012-.002.126-.002.251-.026.369-.075.124-.051.234-.124.327-.217l1.998-1.99c.188-.188.294-.442.294-.708l.001-8.019c0-.152-.039-.293-.1-.422-.004-.008-.003-.017-.006-.026zm-2.514-.552h-2.382v-.615l2.323.498zm-16.379-4.994h-17.999v-7.001l8.665.001zm-31.999 0v-5.002c0-1.101.896-1.997 1.995-2l10.005.001v7.001zm17.993-18.998v1.992h-1v-3.718c.595.349 1 .988 1 1.726zm-13.999-5.006h18.003v11.998h-5.004v-3h2c.553 0 1-.447 1-1v-2.992c0-2.205-1.791-3.998-3.994-4.005-.002 0-.004-.001-.006-.001-.001 0-.001 0-.002 0s-.003 0-.004 0c-.553 0-1 .447-1 1 0 .011.006.019.006.029v9.969h-4.501v-3.994h.489c.004 0 .007.002.01.002 1.104 0 2.002-.898 2.002-2.002v-4.002c0-.553-.447-1-1-1s-1 .447-1 1v1h-.502v-1c0-.553-.447-1-1-1s-1 .447-1 1v1h-.499v-1c0-.553-.447-1-1-1s-1 .447-1 1v3.999c0 .002-.001.003-.001.005 0 1.102.896 1.998 1.997 1.998h.504v3.994h-4.498zm6.999 5.002v.994c0 .003-.002.005-.002.008h-2.999v-1.002zm1.002 8.996h2.004v1.005h-.974c-.009 0-.017-.005-.025-.005s-.017.005-.025.005h-.979v-1.005zm-20.997 14.008h-1v-2.002h1zm8 17.002c-2.758 0-5.002-2.243-5.002-5 0-2.758 2.244-5.002 5.002-5.002 2.757 0 5 2.244 5 5.002 0 2.757-2.243 5-5 5zm39.998 0c-2.757 0-5-2.243-5-5 0-2.758 2.243-5.002 5-5.002 2.758 0 5.002 2.244 5.002 5.002 0 2.757-2.244 5-5.002 5zm8.587-6h-1.665c-.487-3.388-3.401-6.002-6.922-6.002-3.52 0-6.433 2.614-6.92 6.002h-26.158c-.487-3.388-3.4-6.002-6.92-6.002-3.521 0-6.435 2.614-6.922 6.002h-3.065l-.01-4h.995c.553 0 1-.447 1-1 0-.552-.446-.998-.998-1v-3.002h2c.553 0 1-.447 1-1v-4.002c0-.553-.447-1-1-1h-1.132l4.667-7.002h3.022c-.344.591-.556 1.269-.556 2v6.002c0 .553.447 1 1 1h35.893l9.104 1.95v2.044c0 .553.447 1 1 1h4.002l-.002 6.603z"/><path d="m28 36.502h-1c-.553 0-1 .447-1 1s.447 1 1 1h1c.553 0 1-.447 1-1s-.447-1-1-1z"/><path d="m13.986 36.502h-1c-.553 0-1 .447-1 1s.447 1 1 1h1c.553 0 1-.447 1-1s-.447-1-1-1z"/><path d="m12 46.504c-1.654 0-3 1.346-3 3s1.346 3 3 3 3-1.346 3-3-1.346-3-3-3zm0 4c-.552 0-1-.448-1-1s.448-1 1-1 1 .448 1 1-.448 1-1 1z"/><path d="m51.998 46.504c-1.654 0-3 1.346-3 3s1.346 3 3 3 3-1.346 3-3-1.346-3-3-3zm0 4c-.552 0-1-.448-1-1s.448-1 1-1 1 .448 1 1-.448 1-1 1z"/></svg>