<?xml version="1.0" encoding="iso-8859-1"?>
<!-- Generator: Adobe Illustrator 19.0.0, SVG Export Plug-In . SVG Version: 6.00 Build 0)  -->
<svg version="1.1" id="Layer_1" xmlns="http://www.w3.org/2000/svg" xmlns:xlink="http://www.w3.org/1999/xlink" x="0px" y="0px"
	 viewBox="0 0 439.164 439.164" style="enable-background:new 0 0 439.164 439.164;" xml:space="preserve">
<g transform="translate(0 -540.36)">
	<g>
		<g>
			<path d="M412.572,741.242c0.2-0.6,0.3-1.3,0.3-2v-17.5c0-44.7-19.8-86.4-55.9-117.5c-35.7-30.9-83.6-47.8-134.8-47.8
				s-99,17-134.8,47.8c-36,31.1-55.9,72.8-55.9,117.5v11.9c-25.9,18.6-37.5,41.4-28.4,56.7c0,0.1,0.1,0.1,0.1,0.2
				c4.5,7.1,12.3,11.3,22,12.6l1.5,6.7c0,0.1,0.1,0.2,0.1,0.3c2,7.3,5.8,13.6,10.9,18.5c-9,6.3-14.5,17.1-13.6,28.7
				c0.1,7.6,2.9,14.5,7.5,19.9c0,23,9.1,44.7,25.6,61c16.3,16.2,37.8,25.2,60.4,25.2h209.3c22.6,0,44.1-8.9,60.4-25.2
				c16.5-16.4,25.6-38.1,25.6-61.2v-0.7c4.1-4.9,6.8-10.8,7.4-17.3c1.1-11.4-4-22.3-12.5-29c4.1-4,7.2-9.2,8.6-15l1.6-6.5
				c8.1-2.4,14.4-6.8,18-13.2C444.572,780.542,435.472,759.842,412.572,741.242z M46.672,721.642c0-84.3,77.1-150.3,175.6-150.3
				s175.6,66,175.6,150.3v10h-351.1l-0.1-0.1V721.642z M326.872,948.342h-209.3c-35.8,0-65.4-26.7-70.3-61.4c2.9,0.8,6,1.2,9.2,1.2
				h331.5c3.2,0,6.3-0.5,9.3-1.4C392.372,921.542,362.772,948.342,326.872,948.342z M405.372,857.442c-0.9,8.6-8.8,15.8-17.5,15.8
				h-331.3c-9.9,0-17.4-7-17.4-16.3c0-0.2,0-0.5,0-0.7c-0.9-10,7.1-17.6,15.1-18.4h0.1c2.5,0.7,5.1,1.2,7.8,1.5c0.1,0,0.2,0,0.3,0
				l134.5,7.5c0.1,0,0.3,0,0.4,0c0.2,0,0.5,0,0.7,0l17.7,11.4c0.1,0.1,0.3,0.2,0.4,0.2c5.3,3,11,4.4,16.6,4.4
				c9.8,0,19.3-4.4,25.4-12.7c0.1-0.1,0.1-0.2,0.2-0.2l2-2.9l126.8-7.6c0.1,0,0.3,0,0.4,0c1.5-0.2,2.9-0.4,4.3-0.8
				C400.172,840.442,406.272,848.842,405.372,857.442z M246.072,841.242c-5.1,6.8-14.5,8.5-22.4,4.2l-76.1-49
				c6.8-1.4,13.2-3.4,18.8-5.9c10.5,10.3,26.1,20,42.2,20c24.1,0,42.1-9.5,50.6-26.5c6.6,2.7,14.2,4.7,22.1,5.9L246.072,841.242z
				 M298.572,791.342c0.1,0,0.2,0,0.2,0c15.9,0,29-2.4,39.8-7.2c5.2,4.5,10.5,7.7,16.4,11.3c1.9,1.1,3.8,2.3,5.8,3.6
				c0.2,0.1,0.3,0.2,0.5,0.3c13.9,7.3,28.3,10.9,40.8,11.1l-0.2,0.9c-1.8,7-8,12.1-15.8,13l-114.9,6.9L298.572,791.342z
				 M172.672,830.542l-109.2-6.1c-10.9-1-19.1-7.8-21.9-18.1l-0.7-3.4c11.3-1.5,23.9-5.9,36.5-13.1c0.7-0.2,1.4-0.5,2-0.8
				c10.6,6.2,26.4,9.8,44.2,9.9L172.672,830.542z M423.072,787.542c-0.1,0.1-0.1,0.2-0.2,0.3c-4.6,8.5-28.1,12-54.4-1.7
				c-2-1.3-3.9-2.4-5.8-3.5c-6.9-4.2-12.3-7.5-17.6-12.8c-2.4-2.4-6-2.9-9-1.3c-9.4,5.3-21.7,7.8-37.4,7.8
				c-14.8,0-29.8-3.4-39.9-9.1c-2-1.1-4.4-1.3-6.5-0.4c-2.1,0.9-3.7,2.6-4.4,4.8c-5.8,19.7-24.6,23.8-39.4,23.8
				c-13.3,0-27.2-10.3-35-19.1c-2.3-2.6-6.2-3.3-9.3-1.6c-10.2,5.7-25.1,9.1-39.9,9.1c-16.9,0-32.3-3.7-40.3-9.8
				c-2.3-1.7-5.3-2-7.9-0.7c-1.3,0.6-2.2,1.2-3,1.7c-0.1,0.1-0.2,0.1-0.3,0.2c-0.8,0.2-1.5,0.5-2.2,0.9c-25,14.8-48.7,15.2-54.6,6.3
				c-3.9-6.7,4.5-22,23-35.8c0,0,0,0,0.1,0h356.7c0.5,0.7,1.1,1.4,1.9,2C419.672,764.642,427.172,780.642,423.072,787.542z"/>
			<circle cx="88.672" cy="679.64" r="8"/>
			<circle cx="128.172" cy="667.64" r="8"/>
			<circle cx="154.672" cy="647.84" r="8"/>
			<circle cx="188.672" cy="638.84" r="8"/>
			<circle cx="130.972" cy="622.14" r="8"/>
			<circle cx="163.972" cy="613.64" r="8"/>
			<circle cx="98.672" cy="647.64" r="8"/>
			<circle cx="155.472" cy="688.84" r="8"/>
			<circle cx="181.672" cy="669.34" r="8"/>
			<circle cx="198.472" cy="604.14" r="8"/>
			<circle cx="230.172" cy="604.84" r="8"/>
			<circle cx="264.172" cy="613.14" r="8"/>
			<circle cx="264.072" cy="646.94" r="8"/>
			<circle cx="247.872" cy="671.94" r="8"/>
			<circle cx="214.372" cy="672.14" r="8"/>
			<circle cx="230.472" cy="638.44" r="8"/>
			<circle cx="297.672" cy="621.94" r="8"/>
			<circle cx="329.272" cy="631.24" r="8"/>
			<circle cx="297.472" cy="655.64" r="8"/>
			<circle cx="329.972" cy="672.44" r="8"/>
			<circle cx="363.272" cy="663.94" r="8"/>
			<circle cx="288.772" cy="688.94" r="8"/>
		</g>
	</g>
</g>
<g>
</g>
<g>
</g>
<g>
</g>
<g>
</g>
<g>
</g>
<g>
</g>
<g>
</g>
<g>
</g>
<g>
</g>
<g>
</g>
<g>
</g>
<g>
</g>
<g>
</g>
<g>
</g>
<g>
</g>
</svg>
