<svg height="512pt" viewBox="0 -2 512 512" width="512pt" xmlns="http://www.w3.org/2000/svg"><path d="m502.175781 377.175781h-56.671875c20.558594 0 37.378906-16.820312 37.378906-37.378906s-16.820312-37.378906-37.378906-37.378906h.707032c20.167968 0 36.671874-16.5 36.671874-36.667969 0-6.921875-1.945312-13.410156-5.3125-18.945312 2.703126-.722657 5.628907-1.355469 8.878907-1.851563 7.75-1.183594 11.484375-7.96875 7.308593-13.082031l-34.867187-42.042969h16.824219c25.441406 0 43.070312-21.886719 33.765625-42.132813-39.734375-86.480468-138.246094-147.695312-253.480469-147.695312s-213.746094 61.214844-253.480469 147.695312c-9.304687 20.246094 8.324219 42.132813 33.765625 42.132813h13.230469l-31.519531 42.242187c-3.851563 5.179688.144531 11.675782 7.816406 12.800782 3.191406.46875 6.066406 1.066406 8.726562 1.753906-3.433593 5.578125-5.421874 12.128906-5.421874 19.125 0 20.167969 16.503906 36.667969 36.671874 36.667969h.707032c-20.558594 0-37.378906 16.820312-37.378906 37.378906s16.820312 37.378906 37.378906 37.378906h-56.671875c-5.425781 0-9.824219 4.398438-9.824219 9.824219v1.605469c0 66.078125 53.566406 119.644531 119.644531 119.644531h272.710938c66.078125 0 119.644531-53.566406 119.644531-119.640625v-1.609375c0-5.425781-4.398438-9.824219-9.824219-9.824219zm0 0" fill="#ffe7c0"/><path d="m482.878906 265.75c0 10.082031-4.125 19.253906-10.769531 25.902344-6.644531 6.644531-15.808594 10.765625-25.902344 10.765625h-380.414062c-20.175781 0-36.671875-16.496094-36.671875-36.667969 0-5.5 1.226562-10.730469 3.425781-15.425781 1.824219-3.917969 4.320313-7.457031 7.34375-10.476563 6.644531-6.644531 15.808594-10.769531 25.902344-10.769531h380.414062c14.675781 0 27.402344 8.726563 33.246094 21.246094 2.199219 4.695312 3.425781 9.925781 3.425781 15.425781zm0 0" fill="#d63030"/><path d="m479.453125 250.324219c-1.824219 3.914062-4.320313 7.445312-7.34375 10.464843-6.644531 6.648438-15.808594 10.769532-25.902344 10.769532h-380.414062c-14.664063 0-27.394531-8.714844-33.246094-21.234375 1.824219-3.917969 4.320313-7.457031 7.34375-10.476563 6.644531-6.644531 15.808594-10.769531 25.902344-10.769531h380.414062c14.675781 0 27.402344 8.726563 33.246094 21.246094zm0 0" fill="#f44545"/><path d="m482.878906 339.800781c0 20.558594-16.820312 37.378907-37.378906 37.378907h-379c-10.28125 0-19.621094-4.210938-26.402344-10.980469-6.769531-6.777344-10.976562-16.121094-10.976562-26.398438 0-4.25.71875-8.34375 2.039062-12.167969 5.082032-14.632812 19.03125-25.214843 35.339844-25.214843h379c10.28125 0 19.621094 4.210937 26.402344 10.980469 3.96875 3.976562 7.0625 8.832031 8.9375 14.234374 1.320312 3.824219 2.039062 7.917969 2.039062 12.167969zm0 0" fill="#7c3f2c"/><path d="m480.839844 327.632812c-5.082032 14.632813-19.03125 25.214844-35.339844 25.214844h-379c-10.28125 0-19.621094-4.207031-26.402344-10.976562-3.96875-3.976563-7.0625-8.832032-8.9375-14.238282 5.082032-14.632812 19.03125-25.214843 35.339844-25.214843h379c10.28125 0 19.621094 4.210937 26.402344 10.980469 3.96875 3.976562 7.0625 8.832031 8.9375 14.234374zm0 0" fill="#954c35"/><path d="m486.453125 244.949219c-25.214844 3.84375-30.777344 15.789062-65.335937 15.789062-41.1875 0-41.1875-16.964843-82.371094-16.964843-41.179688 0-41.179688 16.964843-82.359375 16.964843-41.183594 0-41.183594-16.964843-82.375-16.964843-41.179688 0-41.179688 16.964843-82.347657 16.964843-34.789062 0-40.191406-12.101562-65.855468-15.863281-7.664063-1.121094-11.664063-7.621094-7.8125-12.808594l15.570312-20.871094 21.082032-28.234374h398.539062l28.628906 34.515624 11.9375 14.390626c4.1875 5.113281.445313 11.90625-7.300781 13.082031zm0 0" fill="#1ed688"/><path d="m481.816406 217.476562c-13.175781 4.925782-22.964844 11.234376-48.085937 11.234376-41.191407 0-41.191407-16.964844-82.371094-16.964844s-41.179687 16.964844-82.371094 16.964844c-41.179687 0-41.179687-16.964844-82.363281-16.964844-41.179688 0-41.179688 16.964844-82.359375 16.964844-34.789063 0-40.183594-12.101563-65.84375-15.859376-1.855469-.273437-3.488281-.855468-4.855469-1.65625l21.082032-28.234374h398.539062zm0 0" fill="#35e298"/><path d="m512 387v1.601562c0 26.445313-8.582031 50.878907-23.121094 70.6875-21.757812 29.695313-56.886718 48.960938-96.527344 48.960938h-272.703124c-66.085938 0-119.648438-53.5625-119.648438-119.648438v-1.601562c0-5.425781 4.394531-9.820312 9.820312-9.820312h492.359376c5.425781 0 9.820312 4.394531 9.820312 9.820312zm0 0" fill="#f29500"/><path d="m512 387v1.601562c0 26.445313-8.582031 50.878907-23.121094 70.6875-18.019531 10.875-39.140625 17.132813-61.71875 17.132813h-272.707031c-59.125 0-108.230469-42.878906-117.90625-99.242187h465.632813c5.425781 0 9.820312 4.394531 9.820312 9.820312zm0 0" fill="#ffa90b"/><path d="m94.566406 302.714844 250.914063 58.953125c8.707031 2.046875 17.605469-1.191407 24.691406-8.988281l49.238281-50.261719zm0 0" fill="#ffcd71"/><path d="m508.988281 171.179688c-5.488281 10.71875-17.964843 18.644531-33.273437 18.644531h-439.429688c-25.441406 0-43.066406-21.882813-33.765625-42.128907 30.484375-66.355468 95.589844-117.835937 176.285157-138.207031 24.476562-6.175781 50.375-9.488281 77.195312-9.488281 115.230469 0 213.746094 61.21875 253.480469 147.695312 3.707031 8.0625 3.132812 16.382813-.492188 23.484376zm0 0" fill="#f29500"/><path d="m508.988281 171.179688h-420.035156c-25.433594 0-43.066406-21.890626-33.765625-42.136719 23.519531-51.191407 67.636719-93.527344 123.617188-119.554688 24.476562-6.175781 50.375-9.488281 77.195312-9.488281 115.230469 0 213.746094 61.21875 253.480469 147.695312 3.707031 8.0625 3.132812 16.382813-.492188 23.484376zm0 0" fill="#ffa90b"/><g fill="#ffd993"><path d="m148.863281 53.984375c-3.484375-2.542969-8.371093-1.78125-10.914062 1.703125l-11.664063 15.96875c-2.542968 3.484375-1.78125 8.371094 1.703125 10.914062 1.386719 1.015626 3 1.503907 4.597657 1.503907 2.410156 0 4.785156-1.109375 6.316406-3.203125l11.664062-15.972656c2.542969-3.480469 1.78125-8.367188-1.703125-10.914063zm0 0"/><path d="m198.113281 120.59375c-3.484375-2.546875-8.371093-1.78125-10.914062 1.699219l-11.664063 15.972656c-2.542968 3.480469-1.78125 8.367187 1.703125 10.914063 1.386719 1.015624 3 1.503906 4.597657 1.503906 2.410156 0 4.785156-1.109375 6.316406-3.207032l11.664062-15.96875c2.542969-3.484374 1.78125-8.371093-1.703125-10.914062zm0 0"/><path d="m287.601562 53.984375c-3.484374-2.542969-8.371093-1.78125-10.914062 1.703125l-11.664062 15.96875c-2.542969 3.484375-1.78125 8.371094 1.699218 10.914062 1.390625 1.015626 3.003906 1.503907 4.601563 1.503907 2.410156 0 4.785156-1.109375 6.316406-3.203125l11.664063-15.972656c2.542968-3.480469 1.78125-8.367188-1.703126-10.914063zm0 0"/><path d="m337.628906 136.5625c-3.488281-2.542969-8.371094-1.78125-10.914062 1.703125l-11.664063 15.972656c-2.546875 3.480469-1.78125 8.371094 1.699219 10.914063 1.390625 1.015625 3.003906 1.503906 4.601562 1.503906 2.410157 0 4.785157-1.109375 6.3125-3.207031l11.664063-15.96875c2.546875-3.484375 1.785156-8.371094-1.699219-10.917969zm0 0"/><path d="m402.167969 53.984375c-3.484375-2.542969-8.371094-1.78125-10.914063 1.703125l-11.664062 15.96875c-2.542969 3.484375-1.78125 8.371094 1.703125 10.914062 1.386719 1.015626 3 1.503907 4.597656 1.503907 2.410156 0 4.785156-1.109375 6.316406-3.203125l11.664063-15.972656c2.542968-3.480469 1.78125-8.367188-1.703125-10.914063zm0 0"/><path d="m454.378906 128.578125c-3.484375-2.542969-8.371094-1.78125-10.914062 1.703125l-11.664063 15.96875c-2.542969 3.484375-1.785156 8.371094 1.699219 10.914062 1.390625 1.015626 3.003906 1.503907 4.601562 1.503907 2.410157 0 4.785157-1.109375 6.316407-3.203125l11.660156-15.972656c2.546875-3.484376 1.785156-8.371094-1.699219-10.914063zm0 0"/><path d="m78.5 111.902344c-3.484375-2.542969-8.371094-1.78125-10.917969 1.699218l-11.660156 15.972657c-2.546875 3.484375-1.785156 8.371093 1.699219 10.914062 1.390625 1.015625 3.003906 1.503907 4.601562 1.503907 2.40625 0 4.78125-1.109376 6.3125-3.203126l11.664063-15.972656c2.542969-3.484375 1.785156-8.371094-1.699219-10.914062zm0 0"/></g><path d="m419.410156 302.417969-39.867187 40.691406-9.375 9.574219c-7.082031 7.789062-15.976563 11.027344-24.683594 8.988281l-250.917969-58.960937 112.003906-.105469zm0 0" fill="#ffcd71"/><path d="m419.410156 302.417969-39.867187 40.691406c-.8125-.09375-1.613281-.238281-2.425781-.425781l-170.546876-40.078125zm0 0" fill="#ffd993"/></svg>