<svg id="Capa_1" enable-background="new 0 0 511.997 511.997" height="512" viewBox="0 0 511.997 511.997" width="512" xmlns="http://www.w3.org/2000/svg"><g><g><g><path d="m180.18 415.326c-4.142 0-7.5-3.358-7.5-7.5v-12c0-4.142 3.358-7.5 7.5-7.5s7.5 3.358 7.5 7.5v12c0 4.142-3.358 7.5-7.5 7.5z"/></g><g><path d="m254.912 451.797c-17.2 0-31.193-15.258-31.193-34.013 0-23.519 21.859-23.519 31.193-23.519s31.193 0 31.193 23.519c0 18.755-13.993 34.013-31.193 34.013zm0-42.531c-15.539 0-16.193 2.611-16.193 8.519 0 10.484 7.264 19.013 16.193 19.013s16.193-8.529 16.193-19.013c0-5.908-.655-8.519-16.193-8.519z"/></g><g><path d="m329.644 415.326c-4.142 0-7.5-3.358-7.5-7.5v-12c0-4.142 3.358-7.5 7.5-7.5s7.5 3.358 7.5 7.5v12c0 4.142-3.358 7.5-7.5 7.5z"/></g></g><path d="m434.912 217.102h-10.536l35.903-86.677c5.742-13.863 5.742-29.133 0-42.996s-16.54-24.661-30.403-30.403-29.133-5.743-42.996 0c-13.079 5.417-23.425 15.338-29.376 28.084-10.573-11.735-25.726-18.602-41.812-18.577 4.969-10.818 7.567-22.601 7.567-34.697 0-8.84-3.72-17.354-10.206-23.361-6.485-6.006-15.259-9.059-24.075-8.384l-25.545 1.965c-40.389 3.107-72.262 34.576-76.392 74.279-27.775 3.509-49.153 27.48-49.153 55.736v21.096c-27.542 3.722-48.678 27.57-48.678 55.664v8.27h-14.298c-15.164 0-27.5 12.336-27.5 27.5s12.336 27.5 27.5 27.5h17.531l20.218 141.531c.535 3.741 3.743 6.44 7.416 6.44.353 0 .71-.025 1.07-.076 4.101-.586 6.95-4.385 6.364-8.485l-5.756-40.294c8.768 3.426 19.521 5.884 34.23 5.884 18.415 0 30.583-3.901 39.89-8.331 5.767 5.781 13.737 9.363 22.529 9.363 17.234 0 31.303-13.766 31.814-30.878 1.873-.101 3.797-.153 5.766-.153 22.923 0 34.202 6.767 46.143 13.931 12.553 7.532 26.782 16.069 53.86 16.069 13.719 0 23.88-2.143 31.959-5.022l-12.795 89.563c-2.879 20.155-20.403 35.354-40.763 35.354h-158.952c-20.36 0-37.884-15.199-40.763-35.354l-2.917-20.423c-.586-4.101-4.386-6.954-8.485-6.364-4.101.586-6.95 4.385-6.364 8.485l2.917 20.423c3.928 27.498 27.836 48.233 55.613 48.233h158.952c27.776 0 51.685-20.735 55.613-48.233l27.381-191.662h17.531c15.164 0 27.5-12.336 27.5-27.5-.002-15.163-12.339-27.5-27.502-27.5zm-64.578-123.932c8.688-20.977 32.825-30.973 53.801-22.285 10.162 4.209 18.076 12.123 22.285 22.285s4.209 21.354 0 31.516l-38.28 92.417h-68.043-21.097zm-105.751-76.157 25.545-1.965c4.729-.366 9.252 1.21 12.733 4.434 3.48 3.223 5.397 7.611 5.397 12.355 0 12.774-3.516 25.124-10.19 35.891l-95.765 7.366c4.555-31.21 30.126-55.608 62.28-58.081zm-202.171 227.589c0-6.893 5.607-12.5 12.5-12.5h111.653v25h-111.653c-6.893 0-12.5-5.607-12.5-12.5zm93.573 117.5c-16.479 0-26.906-3.364-36.753-8.543l-11.637-81.457h78.969v74.193c0 3.336.518 6.553 1.474 9.577-7.713 3.482-17.389 6.23-32.053 6.23zm79.257-15.806c0 9.285-7.554 16.838-16.839 16.838s-16.838-7.554-16.838-16.838v-121.694c0-4.142-3.358-7.5-7.5-7.5h-89.855v-8.27c0-21.382 16.7-39.416 38.02-41.056l131.136-10.087c4.13-.318 7.22-3.923 6.903-8.053-.318-4.131-3.926-7.218-8.053-6.903l-119.327 9.179v-19.84c0-21.382 16.7-39.416 38.019-41.056l121.692-9.361c15.456-1.191 30.15 6.375 38.215 19.439l-15.228 36.764-33.372 2.567c-4.13.318-7.22 3.923-6.903 8.053.303 3.935 3.589 6.925 7.47 6.925.193 0 .388-.007.583-.022l25.784-1.983-28.206 68.095c-.013.03-.021.061-.033.092-.407.924-.637 1.943-.637 3.017 0 4.142 3.358 7.5 7.5 7.5h24.821v65.516c0 9.285-7.554 16.838-16.838 16.838-9.285 0-16.839-7.554-16.839-16.838 0-17.556-14.283-31.839-31.838-31.839-17.556 0-31.839 14.283-31.839 31.839v48.678zm155.18 8.449c-7.761 3.816-18.041 7.357-34.435 7.357-22.923 0-34.202-6.767-46.143-13.931-12.553-7.532-26.782-16.069-53.86-16.069-1.95 0-3.861.054-5.741.142v-34.626c0-9.285 7.554-16.839 16.839-16.839s16.838 7.554 16.838 16.839c0 17.556 14.283 31.838 31.839 31.838s31.838-14.283 31.838-31.838v-25.516h54.631zm44.49-97.643h-87.315v-25h87.315c6.893 0 12.5 5.607 12.5 12.5s-5.608 12.5-12.5 12.5z"/></g></svg>