<svg id="Capa_1" enable-background="new 0 0 511.091 511.091" height="512" viewBox="0 0 511.091 511.091" width="512" xmlns="http://www.w3.org/2000/svg"><g id="XMLID_606_"><g id="XMLID_661_"><path id="XMLID_599_" d="m230.377 511.091c-.052 0-.099 0-.151 0-49.627-.04-96.36-19.463-131.59-54.693-18.508-18.507-33.94-40.861-44.63-64.644-11.787-26.226-17.964-53.909-18.358-82.281-.907-65.298 29.354-130.554 87.514-188.713 23.228-23.228 79.548-70.022 143.302-98.069 78.442-34.51 143.085-29.577 186.932 14.27 10.872 10.872 18.813 28.279 21.24 46.563 2.078 15.648 1.252 39.659-14.482 65.175-36.641 59.42-50.468 106.786-44.83 153.581 6.908 57.343-12.563 113.592-53.422 154.325-35.248 35.138-81.954 54.486-131.525 54.486zm130.586-481.234c-24.145 0-51.662 6.761-82.42 20.293-59.687 26.258-112.42 70.072-134.169 91.822-109.745 109.745-91.395 226.342-24.525 293.213 60.85 60.848 159.932 60.928 220.873.173 34.278-34.173 50.613-81.371 44.816-129.491-6.504-53.994 8.633-107.323 49.08-172.915 20.646-33.48 6.972-65.372-2.436-74.779-18.873-18.872-42.69-28.316-71.219-28.316z"/></g><g id="XMLID_608_"><path id="XMLID_595_" d="m230.374 451.091c-33.656 0-65.375-13.183-89.312-37.119-28.329-28.33-44.884-66.722-45.421-105.333-.312-22.48 4.584-45.314 14.552-67.867 11.663-26.389 30.301-52.493 55.395-77.586 42.865-42.866 131.883-103.235 195.581-103.235 13.607 0 25.075 2.687 35.061 8.214 8.294 4.591 14.458 12.479 16.91 21.639 2.471 9.227 1.126 18.799-3.784 26.953l-.234.385c-43.694 70.857-60.64 131.946-53.368 192.313 4.686 38.897-8.514 77.043-36.214 104.657-23.919 23.846-55.585 36.979-89.166 36.979zm130.795-361.14c-52.148 0-134.773 54.852-174.369 94.448-22.465 22.465-39.008 45.512-49.168 68.501-8.21 18.576-12.246 37.189-11.994 55.322.429 30.869 13.783 61.681 36.637 84.536 18.271 18.271 42.456 28.333 68.099 28.333 25.584 0 49.729-10.023 67.985-28.225 21.121-21.055 31.184-50.149 27.609-79.823-8.127-67.469 10.169-134.702 57.579-211.584l.087-.143c.88-1.461.77-2.845.526-3.755-.21-.784-.809-2.236-2.46-3.15-5.497-3.042-12.022-4.46-20.531-4.46z"/></g><g id="XMLID_607_"><path id="XMLID_591_" d="m231.5 375.31c-26.542 0-48.136-21.594-48.136-48.136s21.594-48.136 48.136-48.136 48.136 21.594 48.136 48.136-21.594 48.136-48.136 48.136zm0-66.272c-10 0-18.136 8.136-18.136 18.136s8.136 18.136 18.136 18.136 18.136-8.136 18.136-18.136-8.136-18.136-18.136-18.136z"/></g></g></svg>