<svg xmlns="http://www.w3.org/2000/svg" viewBox="0 0 700.13 832.14"><defs><style>.cls-1{fill:#f2f2f2;}.cls-2{fill:none;stroke:#fed385;stroke-linecap:round;stroke-miterlimit:10;stroke-width:5px;}.cls-3{fill:#fd8369;}.cls-4{fill:#d37c59;}.cls-5{fill:#74d5de;}.cls-6{fill:#fed385;}.cls-7{fill:#de8e68;}</style></defs><title>shipping-package-colour</title><g id="Layer_2" data-name="Layer 2"><g id="Layer_1-2" data-name="Layer 1"><path class="cls-1" d="M110.4,119.58C41.78,162.74-6.82,240.27.78,313.35c7.77,72.91,71.76,141.52,93.74,228s2.15,191.12,38.86,244.35c36.53,53.41,130,55.72,206.16,32.24,76.38-23.31,135.57-72.41,201.37-116.39C606.71,657.73,679,618.88,696,562.83c17-55.88-21.33-129-63-183.51-41.5-54.73-86.63-90.77-133.25-141.19s-94.9-115.07-163.35-143C267.79,67.18,179,76.27,110.4,119.58Z"/><line class="cls-2" x1="299.5" y1="600.78" x2="314" y2="342.28"/><line class="cls-2" x1="299.5" y1="600.78" x2="474.5" y2="368.78"/><line class="cls-2" x1="299.5" y1="600.78" x2="485.5" y2="195.78"/><ellipse class="cls-3" cx="525.5" cy="129.28" rx="101" ry="78.71" transform="translate(224.35 578.91) rotate(-70.01)"/><ellipse class="cls-4" cx="325.5" cy="264.28" rx="101" ry="78.71" transform="translate(39.21 570.59) rotate(-86.01)"/><ellipse class="cls-5" cx="525.5" cy="273.28" rx="112" ry="94.5" transform="translate(49.8 626.18) rotate(-64.05)"/><ellipse class="cls-5" cx="378.39" cy="96.02" rx="96.36" ry="79.8" transform="translate(226.52 455.66) rotate(-81.35)"/><ellipse class="cls-6" cx="415.24" cy="226.6" rx="93.44" ry="69.34" transform="translate(77.82 558.15) rotate(-73.12)"/><path class="cls-4" d="M318.32,362l9,21.14a3.85,3.85,0,0,1-4,5.32l-22.79-2.81a3.84,3.84,0,0,1-2.6-6.13l13.83-18.33A3.84,3.84,0,0,1,318.32,362Z"/><line class="cls-2" x1="299.5" y1="600.78" x2="266.5" y2="229.78"/><line class="cls-2" x1="299.5" y1="600.78" x2="387.5" y2="306.78"/><path class="cls-6" d="M390.76,307.05,396,329.42a3.84,3.84,0,0,1-4.86,4.54l-22-6.67a3.84,3.84,0,0,1-1.51-6.48l16.76-15.69A3.84,3.84,0,0,1,390.76,307.05Z"/><path class="cls-5" d="M480.41,364.89l-1.6,22.9a3.84,3.84,0,0,1-6,2.92l-19-12.84a3.84,3.84,0,0,1,.47-6.64l20.63-10.06A3.84,3.84,0,0,1,480.41,364.89Z"/><ellipse class="cls-3" cx="258.5" cy="129.28" rx="94.5" ry="112" transform="translate(-9.54 21.16) rotate(-4.6)"/><path class="cls-3" d="M269.26,232.21l13,18.9a3.85,3.85,0,0,1-2.85,6L256.56,259a3.85,3.85,0,0,1-3.78-5.48l9.85-20.74A3.84,3.84,0,0,1,269.26,232.21Z"/><rect class="cls-7" x="224.63" y="608.65" width="223.27" height="200" transform="translate(527.91 1469.26) rotate(-168.76)"/><polygon class="cls-4" points="255.06 656.83 474.04 700.35 465.25 632.33 246.26 588.81 255.06 656.83"/><rect class="cls-4" x="100.16" y="574.43" width="127.83" height="200" transform="translate(193.53 1367.9) rotate(-168.76)"/><polygon class="cls-7" points="212.74 648.41 87.6 623.54 121.13 563.93 246.26 588.81 212.74 648.41"/><rect class="cls-4" x="296.61" y="748.3" width="51.82" height="59" transform="translate(487.21 1603.55) rotate(-168.76)"/><rect class="cls-6" x="239.91" y="674.01" width="78.04" height="43.07" transform="translate(416.91 1432.12) rotate(-168.76)"/><rect class="cls-3" x="292.88" y="684.01" width="17.64" height="31.29" transform="translate(461.21 1444.7) rotate(-168.76)"/><rect class="cls-3" x="248.16" y="677.67" width="44.08" height="5.96" transform="translate(402.52 1400.92) rotate(-168.76)"/><rect class="cls-3" x="246.16" y="687.67" width="44.08" height="5.96" transform="translate(396.61 1420.34) rotate(-168.76)"/></g></g></svg>