<?xml version="1.0" encoding="iso-8859-1"?>
<!-- Generator: Adobe Illustrator 19.0.0, SVG Export Plug-In . SVG Version: 6.00 Build 0)  -->
<svg version="1.1" id="Capa_1" xmlns="http://www.w3.org/2000/svg" xmlns:xlink="http://www.w3.org/1999/xlink" x="0px" y="0px"
	 viewBox="0 0 511.998 511.998" style="enable-background:new 0 0 511.998 511.998;" xml:space="preserve">
<g>
	<g>
		<path d="M425.566,49.589c-35.213-13.13-70.408-13.75-100.834-2.436c8.818-10.18,18.388-19.724,28.644-28.528
			c7.96-6.832,2.055-19.894-8.39-18.526c-38.885,5.047-72.809,25.582-88.99,60.733C239.737,25.651,206.114,5.175,167.013,0.1
			c-10.442-1.363-16.356,11.691-8.39,18.525c10.255,8.803,19.823,18.348,28.641,28.526c-30.424-11.314-65.618-10.693-100.832,2.438
			c-10.609,3.955-9.673,19.302,1.303,21.797c26.247,5.962,51.861,15.094,76.134,27.032c-25.098,4.18-49.003,17.98-68.304,40.001
			c-6.979,7.969,0.676,20.08,10.718,17.284c24.355-6.763,49.323-10.091,74.527-9.989c-39.192,24.943-65.248,68.765-65.248,118.563
			v108.45c0,71.174,53.404,130.071,121.904,139.205c4.113,0.548,7.896-2.34,8.446-6.458c0.548-4.115-2.343-7.896-6.458-8.446
			c-2.184-0.292-4.347-0.645-6.493-1.046l25.338-25.338l24.56,24.56c-3.386,0.744-6.823,1.359-10.311,1.824
			c-4.115,0.549-7.006,4.33-6.458,8.446c0.55,4.129,4.345,7.006,8.446,6.458c69.21-9.228,121.905-68.817,121.905-139.205
			c0-12.585,0-87.699,0-98.601c0-4.153-3.365-7.517-7.517-7.517s-7.517,3.365-7.517,7.517v28.317l-44.963-44.963l37.023-37.023
			c2.402,6.424,4.307,13.109,5.649,20.021c0.791,4.075,4.74,6.743,8.812,5.947c4.075-0.791,6.739-4.737,5.947-8.812
			c-7.58-39.029-30.995-71.719-62.758-91.899c25.229-0.11,50.222,3.219,74.602,9.99c10.108,2.8,17.678-9.346,10.718-17.285
			c-19.299-22.018-43.203-35.82-68.3-40.001c24.271-11.938,49.887-21.069,76.133-27.031
			C435.238,68.891,436.175,53.545,425.566,49.589z M331.786,17.924c-29.46,28.264-53.283,63.033-69.349,103.486
			C255.716,72.523,281.376,30.991,331.786,17.924z M293.103,144.529l-34.808,34.808l-35.859-35.859
			C244.757,137.227,269.407,137.127,293.103,144.529z M201.417,257.48l56.88-56.88l56.879,56.879l-56.88,56.88L201.417,257.48z
			 M247.663,324.991l-56.879,56.879l-56.879-56.879l56.879-56.879L247.663,324.991z M180.187,17.901
			c35.694,9.175,60.629,33.366,68.135,66.882c-1.816,9.471-2.397,19.292-1.742,29.348C231.911,79.522,209.485,46.002,180.187,17.901
			z M103.49,59.785c38.991-11.17,76.912-5.418,105.716,16.354c10.135,15.432,18.681,31.626,25.763,49.275
			c-0.017,0.003-0.034,0.005-0.052,0.007C196.966,95.575,151.95,72.652,103.49,59.785z M117.667,137.387
			c20.492-18.352,45.538-27.939,72.377-24.686c9.304,5.606,17.525,11.108,25.644,17.044c-2.4,0.72-4.772,1.5-7.115,2.343
			C177.928,129.065,147.429,130.846,117.667,137.387z M206.726,149.03l40.939,40.939l-56.88,56.88l-43.998-43.998
			C159.812,179.819,180.538,160.301,206.726,149.03z M130.596,264.277c0-16.403,3.172-32.343,9.215-47.138l40.343,40.342
			l-49.558,49.558V264.277z M130.596,372.728v-29.785l49.558,49.558l-36.245,36.245
			C134.969,410.908,130.596,391.815,130.596,372.728z M216.093,491.584c-26.644-8.985-49.14-26.638-64.358-49.4l39.051-39.05
			l56.879,56.879L216.093,491.584z M258.297,449.38l-56.88-56.879l56.879-56.879l56.88,56.879L258.297,449.38z M299.299,490.383
			l-30.37-30.37l56.879-56.879l36.264,36.264C347.481,462.512,325.521,480.686,299.299,490.383z M369.593,425.655l-33.154-33.154
			l44.963-44.963C381.402,373.884,383.281,396.701,369.593,425.655z M381.402,323.707v2.569l-55.595,55.595l-56.88-56.879
			l56.88-56.879L381.402,323.707z M366.837,205.818l-41.031,41.031l-56.879-56.879l39.52-39.52
			C333.443,162.042,353.908,181.452,366.837,205.818z M394.33,137.386c-28.999-6.372-59.521-8.404-90.993-5.29
			c-2.326-0.838-4.68-1.615-7.058-2.33c8.076-5.905,16.425-11.496,25.674-17.065C347.746,109.568,372.964,118.252,394.33,137.386z
			 M277.066,125.432c-0.014-0.003-0.028-0.005-0.043-0.007c7.065-17.589,15.729-34.059,25.767-49.285
			c28.804-21.774,66.73-27.525,105.717-16.355C362.449,72.014,316.999,94.026,277.066,125.432z"/>
	</g>
</g>
<g>
</g>
<g>
</g>
<g>
</g>
<g>
</g>
<g>
</g>
<g>
</g>
<g>
</g>
<g>
</g>
<g>
</g>
<g>
</g>
<g>
</g>
<g>
</g>
<g>
</g>
<g>
</g>
<g>
</g>
</svg>
