<svg id="color" enable-background="new 0 0 24 24" height="512" viewBox="0 0 24 24" width="512" xmlns="http://www.w3.org/2000/svg"><circle cx="12" cy="12" fill="#ffd54f" r="12"/><path d="m12 0c-6.627 0-12 5.373-12 12 0 6.627 5.373 12 12 12v-6-1.5z" fill="#deb945"/><path d="m20.842 7.175c-.251-.031-5.922-.708-8.842.851-2.92-1.558-8.59-.882-8.842-.851-.376.047-.658.366-.658.744 0 2.109.97 6.097 4.639 6.097 2.461 0 4.013-1.559 4.861-3.087.849 1.528 2.4 3.087 4.861 3.087 3.669 0 4.639-3.988 4.639-6.097 0-.378-.282-.697-.658-.744z" fill="#455a64"/><path d="m12 19.985c-2.093 0-4.187-.797-5.78-2.391-.293-.293-.293-.768 0-1.061s.768-.293 1.061 0c1.261 1.261 2.937 1.955 4.72 1.955s3.459-.694 4.72-1.955c.293-.293.768-.293 1.061 0s.293.768 0 1.061c-1.595 1.594-3.689 2.391-5.782 2.391z" fill="#6d4c41"/><path d="m6.265 7.003c-1.669 0-2.989.158-3.108.173-.375.046-.657.365-.657.743 0 2.109.97 6.097 4.639 6.097 2.461 0 4.013-1.559 4.861-3.087v-2.903c-1.545-.824-3.86-1.023-5.735-1.023z" fill="#3c4e57"/><path d="m6.75 16.314c-.192 0-.384.073-.53.22-.293.293-.293.768 0 1.061 1.594 1.594 3.687 2.391 5.78 2.391v-1.497c-1.783 0-3.459-.694-4.72-1.955-.146-.146-.338-.22-.53-.22z" fill="#5f4239"/></svg>