<svg id="Capa_1" enable-background="new 0 0 512 512" height="512" viewBox="0 0 512 512" width="512" xmlns="http://www.w3.org/2000/svg"><g><path d="m154.97 96c0-35.346-29.233-64-65.294-64s-65.294 28.654-65.294 64 29.233 64 65.294 64 65.294-28.654 65.294-64zm-49.36 15.934h-31.867v-31.868h31.867z"/><path d="m154.97 224c0-35.346-29.233-64-65.294-64s-65.294 28.654-65.294 64 29.233 64 65.294 64 65.294-28.654 65.294-64zm-49.36 15.934h-31.867v-31.867h31.867z"/><path d="m285.558 160c0-35.346-29.233-64-65.294-64s-65.294 28.654-65.294 64 29.233 64 65.294 64 65.294-28.654 65.294-64zm-49.361 15.934h-31.867v-31.867h31.867z"/><path d="m154.97 288c0 35.346 29.233 64 65.294 64s65.294-28.654 65.294-64-29.233-64-65.294-64-65.294 28.654-65.294 64zm49.36-15.934h31.867v31.867h-31.867z"/><path d="m154.97 416c0 35.346 29.233 64 65.294 64s65.294-28.654 65.294-64-29.233-64-65.294-64-65.294 28.654-65.294 64zm49.36-15.934h31.867v31.867h-31.867z"/><path d="m89.676 288c-36.061 0-65.294 28.654-65.294 64s29.233 64 65.294 64 65.294-28.654 65.294-64-29.233-64-65.294-64zm15.934 79.934h-31.867v-31.867h31.867z"/><path d="m375.771 512h27.906v-512h-53.94z"/><path d="m433.677 0v512h27.906l26.035-512z"/></g></svg>