<?xml version="1.0" encoding="iso-8859-1"?>
<!-- Generator: Adobe Illustrator 19.0.0, SVG Export Plug-In . SVG Version: 6.00 Build 0)  -->
<svg version="1.1" id="Layer_1" xmlns="http://www.w3.org/2000/svg" xmlns:xlink="http://www.w3.org/1999/xlink" x="0px" y="0px"
	 viewBox="0 0 512 512" style="enable-background:new 0 0 512 512;" xml:space="preserve">
<g>
	<g>
		<path d="M503.83,388.085H8.17c-4.513,0-8.17,3.657-8.17,8.17s3.657,8.17,8.17,8.17h25.333c3.795,18.624,20.3,32.681,40.029,32.681
			h364.936c19.728,0,36.233-14.057,40.029-32.681h25.333c4.513,0,8.17-3.657,8.17-8.17S508.343,388.085,503.83,388.085z
			 M438.468,420.766H73.532c-10.651,0-19.733-6.831-23.105-16.34h411.147C458.201,413.935,449.119,420.766,438.468,420.766z"/>
	</g>
</g>
<g>
	<g>
		<circle cx="156.868" cy="232.851" r="8.17"/>
	</g>
</g>
<g>
	<g>
		<circle cx="124.187" cy="265.532" r="8.17"/>
	</g>
</g>
<g>
	<g>
		<path d="M264.17,140.421v-16.506h24.511c4.513,0,8.17-3.657,8.17-8.17c0-22.526-18.325-40.851-40.851-40.851
			s-40.851,18.325-40.851,40.851c0,4.513,3.657,8.17,8.17,8.17s8.17-3.657,8.17-8.17c0-13.515,10.996-24.511,24.511-24.511
			c10.652,0,19.738,6.83,23.111,16.34H256c-4.513,0-8.17,3.657-8.17,8.17v24.676C128.463,144.737,32.681,243.173,32.681,363.574
			c0,4.513,3.657,8.17,8.17,8.17s8.17-3.657,8.17-8.17c0-114.129,92.85-206.979,206.979-206.979s206.979,92.85,206.979,206.979
			c0,4.513,3.657,8.17,8.17,8.17s8.17-3.657,8.17-8.17C479.319,243.173,383.537,144.737,264.17,140.421z"/>
	</g>
</g>
<g>
</g>
<g>
</g>
<g>
</g>
<g>
</g>
<g>
</g>
<g>
</g>
<g>
</g>
<g>
</g>
<g>
</g>
<g>
</g>
<g>
</g>
<g>
</g>
<g>
</g>
<g>
</g>
<g>
</g>
</svg>
